<svg id="Layer_1" data-name="Layer 1" xmlns="http://www.w3.org/2000/svg" viewBox="0 0 4820.52 2512.01"><defs><style>.cls-1{fill:#dcf0ee;}.cls-1,.cls-10,.cls-11,.cls-12,.cls-14,.cls-15,.cls-16,.cls-17,.cls-18,.cls-19,.cls-20,.cls-21,.cls-22,.cls-23,.cls-24,.cls-25,.cls-27,.cls-28,.cls-29,.cls-3,.cls-30,.cls-31,.cls-32,.cls-33,.cls-34,.cls-4,.cls-5,.cls-6,.cls-7,.cls-8,.cls-9{fill-rule:evenodd;}.cls-2,.cls-8{fill:#e98566;}.cls-3{fill:#e36445;}.cls-4{fill:#9c9396;}.cls-5{fill:#b6d3d9;}.cls-6{fill:#a2c9d1;}.cls-7{fill:#b57e4c;}.cls-9{fill:#51464c;}.cls-10{fill:#e67859;}.cls-11{fill:#41a2ad;}.cls-12{fill:#2c8b9b;}.cls-13,.cls-32{fill:#82767a;}.cls-14{fill:#f1cab3;}.cls-15{fill:#d19460;}.cls-16{fill:#e2573a;}.cls-17{fill:#007a8a;}.cls-18{fill:#f6dccc;}.cls-19{fill:#d59f7e;}.cls-20{fill:#fdcb9c;}.cls-21{fill:#6f6469;}.cls-22{fill:#167a8a;}.cls-23{fill:#574c51;}.cls-24{fill:#fff;}.cls-25{fill:#4ba5b1;}.cls-26{fill:#2d8b9c;}.cls-27{fill:#60545a;}.cls-28{fill:#e0eaec;}.cls-29{fill:#d9d6d6;}.cls-30{fill:#3b5964;}.cls-31{fill:#274d59;}.cls-33{fill:#43a3af;}.cls-34{fill:#0096a3;}</style></defs><polygon class="cls-1" points="0 440.48 4820.52 1884.75 4820.52 2512.01 0 2512.01 0 440.48 0 440.48"/><path class="cls-2" d="M3860,2190.83l458.13-142.78,51.38,15-458.13,142.78-51.38-15ZM1205.89,1464,1664,1321.23l51.38,15L1257.27,1479l-51.38-15Zm663.52,181.7,458.14-142.78,51.38,15L1920.79,1660.7l-51.38-15Zm663.53,181.71,458.13-142.78,51.38,15-458.13,142.78-51.38-15Zm663.52,181.7,458.13-142.78,51.39,15-458.14,142.78-51.38-15ZM542.36,1282.3l458.14-142.78,51.38,15L593.75,1297.29l-51.39-15Z" transform="translate(-289.95 -294.59)"/><path class="cls-3" d="M854.52,456.83c4.33,1.32,60.6,127,80.9,160.38s-56.33,79-65.28,96.9-30.73,14.3-36.09,6.54,22.05-72.18,51-98.79C870.72,605.14,852.43,539,852.43,539l-1.19-55.53s-24.78-26,3.28-26.64Z" transform="translate(-289.95 -294.59)"/><path class="cls-4" d="M755,1147.83s6.71,25.49,1.68,32.2-12.08.67-28.18-7-40.93-16.77-40.93-25.16,30.52,2.45,39.92-6.66,27.51,6.66,27.51,6.66Z" transform="translate(-289.95 -294.59)"/><path class="cls-4" d="M865.87,1104.36s7,28.1,1.75,35.5-12.54.73-29.26-7.77-42.51-18.49-42.51-27.73,31.7,2.69,41.46-7.34,28.56,7.34,28.56,7.34Z" transform="translate(-289.95 -294.59)"/><path class="cls-5" d="M865.46,1113.39c-8.27,0-27.53-12.83-27.53-12.83-21-93.93-34.11-179.39-42.19-246.49,5.72-21.59-26.36-113.13-21.4-132.63,10.06.35,36.69-11.39,45.32-22.55,20.12-26,56.26,3.18,61.36,6.83,12.42,8.87,2.21,122.53-23.94,211.64,0,0,6.49,13.75,10.21,80.84,3.57,64.68,3.57,97.4,1.83,112.41-.23,2-1.6,2.78-3.66,2.78Z" transform="translate(-289.95 -294.59)"/><path class="cls-6" d="M796.79,862.64q-.54-4.33-1-8.57c3.5-13.19-7.13-52.51-14.78-85.54l-5-42.08,7.84-6.63c12.19-3.57,29.24-12.42,35.82-20.93a31.54,31.54,0,0,1,3.39-3.72l32.17,32.49L878.53,714c-6.67,3.54-68.91,122-81.74,148.67Z" transform="translate(-289.95 -294.59)"/><path class="cls-5" d="M739.58,701.91S704.68,787.42,714,917.43c4.85,67.52,4.56,147.92,9.63,226.12,0,0,23.21,14.56,31.19,9.48s9.24-71.82,14.41-134.93,5.17-98.65,5.17-98.65,23.41-81.32,38-135.47c36.37-14.23,38.65-53.38,40.7-61.89L739.58,701.91Z" transform="translate(-289.95 -294.59)"/><path class="cls-7" d="M672,774.47c-16.09-3-30.62,27.56-33.75,43.66-2.4,12.29,5.65-4.77,5.65-4.77l3.69-7.26a6.73,6.73,0,0,0,.75.44,57.37,57.37,0,0,0-6.24,16.1c-2.39,12.3,5.66-4.76,5.66-4.76l5-9.83.93.25c-2.66,4.55-5.86,11-7.16,17.71-2.39,12.3,5.67-4.76,5.67-4.76l6-11.7,1,.27c-1.92,4.13-3.12,5.42-4.75,14.09s5.14-5,5.14-5c1.42-2.63,2-5.56,3.42-7.62,6.42-9,17.69-11.12,19.3-23.4,8.85-23.29-10.2-13.4-10.2-13.4Z" transform="translate(-289.95 -294.59)"/><path class="cls-7" d="M722.15,337s-14.42,20.62-13.06,36.09,10,18.56,9.64,32,7.55,43.65,28.51,50.18,42.28-13.4,42.28-16.49,5.16-68.06,5.16-68.06L722.15,337Z" transform="translate(-289.95 -294.59)"/><path class="cls-8" d="M868.51,588.26c-.87,27.91,5.55,91.59,15.7,108.76s-18.74,34.35-53.85,36.69-81.2-2.34-89.78-18-14.24-177.93-15.35-184.07,6.89-23.17,10.21-24.42c28.19,7.82,114.39-11.25,119.94-31.8,7.39,2.78,14,84.89,13.13,112.8Z" transform="translate(-289.95 -294.59)"/><path class="cls-3" d="M885.88,707.19c-3.32,13.27-23.91,24.41-55.52,26.52-12.2.81-28.75,2.29-43.27.6-26.17-3-44.82-12-48.41-18.56-5.84-10.61-10.09-55.11-11.1-80.86,10.73-34.21,23.83-75.51,23.83-75.51l25,6.25c7.43-2,17.83,13.85,17.52,35.54-.5,36.17-16.3,88.49-19.28,100.79-6,24.91,92.75,20.48,111.24,5.23Z" transform="translate(-289.95 -294.59)"/><path class="cls-8" d="M778.69,558.26s-5.18,79.41-21.69,102c-8.29,11.39-50.3,110.89-72.31,126.92,0,0-18.71-5.87-17.43-16.37,1.47-12.09,31.39-110,37.15-114.82,7.12-163.6,21.85-143.68,40.42-153.75s31.88,51.86,31.88,51.86l2,4.13Z" transform="translate(-289.95 -294.59)"/><path class="cls-8" d="M854.37,456.84c9.21,4.42,7.64,23.74,7.64,23.74S831.49,514.92,790,523.82s-64.46,3.37-64.46,3.37C719.84,500,808.9,435,854.37,456.84Z" transform="translate(-289.95 -294.59)"/><path class="cls-9" d="M754.82,308.8c21.91-4.89,46.52,11,60,31.06.06-.22.1-.33.1-.33,8.67,13.54,64.94,157.72,46.51,178.85-7.08,8.11-64.81,21.6-64.81,21.6s-26.18-86.72-35.92-111.51c-13.4-34.11-95.62-99.62-5.88-119.67Z" transform="translate(-289.95 -294.59)"/><path class="cls-9" d="M705.73,384l28.72-6.38,3.73-61.17s-42,9.57-32.45,67.55Z" transform="translate(-289.95 -294.59)"/><path class="cls-9" d="M774.87,319.65s22.35-36.7,40.42-21.27-40.42,21.27-40.42,21.27Z" transform="translate(-289.95 -294.59)"/><path class="cls-10" d="M4033.86,2075.15s7.14,30.39.93,38.38-14.42.8-33.35-8.39-48.22-20-47.94-30,36.3,2.92,47.79-7.93,32.57,7.93,32.57,7.93Z" transform="translate(-289.95 -294.59)"/><path class="cls-10" d="M4167.62,2035.06s7.39,34.25.92,43.27-15,.9-34.62-9.47-50.05-22.54-49.74-33.8,37.69,3.28,49.64-9,33.8,9,33.8,9Z" transform="translate(-289.95 -294.59)"/><path class="cls-11" d="M4166.83,2046.07c-9.85,0-32.39-15.65-32.39-15.65-22-114.5-34.77-218.69-42.2-300.49,7.52-26.31-27.72-137.91-21.17-161.68,12,.43,44.1-13.89,54.76-27.49,24.82-31.69,29.51-10.19,35.48-5.75,14.51,10.81,16.55,167.16,2,272.08,0,0,7.28,16.76,9.51,98.55,2.15,78.85,1.07,118.74-1.49,137-.34,2.42-2,3.39-4.46,3.39Z" transform="translate(-289.95 -294.59)"/><path class="cls-12" d="M4092.38,1729.39c6.91-27.26-27.82-137.53-21.31-161.14,12,.43,44.1-13.89,54.76-27.49,24.82-31.69,29.51-10.19,35.48-5.75,5.24,3.9,8.85,26.78,10.64,59.36-19.24,27.63-59.4,98.81-79.57,135Z" transform="translate(-289.95 -294.59)"/><path class="cls-11" d="M4005.84,1546.69s-19,256.3-9.18,523.36c0,0,27.18,17.35,36.86,11.3s13.39-85.59,21.66-160.79,9.43-117.57,9.43-117.57,39.6-135.07,52.68-183.83c49.13-22.39,25.64-73.93,31.73-101.72l-143.18,29.25Z" transform="translate(-289.95 -294.59)"/><path class="cls-13" d="M3993.91,1189.5s-13.71,1.23-13.9,8a40,40,0,0,0,2.09,13.33c1.22,3.3,3.08,5.76,5.73,5.9,5.38.3,19.4-6.46,19.45-6.46l-1-1.85s-13.51,6.49-18.24,6.22c-1.56-.07-2.81-2-3.76-4.52a38,38,0,0,1-2-12.62c.13-4.84,11.76-5.9,11.8-5.9l-.19-2.06Z" transform="translate(-289.95 -294.59)"/><path class="cls-14" d="M3990.39,1141.23s-9.15,39.1-4.13,46.84,8.74,6.91,4.54,21.52-1.09,12.22,13.42,34.88,18,30.65,40.5,15.74,44.6-64.71,44.6-64.71l-25.19-36.07s-10.8-20-14.29-20.29-40.35-25.06-59.45,2.09Z" transform="translate(-289.95 -294.59)"/><path class="cls-14" d="M4029.55,1240.53l9.31,42-23.54,29.83s31.72,21.17,57.61,11.62,51.57-32.5,50.2-35.78-8.48-19.68-10.22-19.68-14.8-1.79-14.72-4.77-17-57.87-17-57.87l-51.62,34.61Z" transform="translate(-289.95 -294.59)"/><path class="cls-15" d="M4094.08,1238.63c-.87-55,22.68-56,13.52-92.93-15.49-62.53-76.74-44.28-114.47-22.25-11.61,6.76-23.58-3.22-31,14.53-3.52,8.46,9.47,20.39,22.63,22.23,17.11,2.39,37.61,3.08,43.34,16.8s2.27,23,2.27,23a12.47,12.47,0,0,0,6.46-2.09c3-2.09,7.79-18.49,16.74-15.81s2.28,55.4,2.28,55.4l38.21,1.16Z" transform="translate(-289.95 -294.59)"/><path class="cls-10" d="M4018.15,1304.54s72.71-35.72,94.68-36.93,41.23,10.84,44.79,24.09,4.54,188.23,4.54,188.23l12.56,69.83s-28.53,25.29-92.77,24.48-75.62-14-75.62-14l1.11-152.51s4.95-93.12,10.71-103.15Z" transform="translate(-289.95 -294.59)"/><path class="cls-16" d="M4055.23,1573c-40.83-3.45-48.9-12.83-48.9-12.83l1.11-152.51s.44-8.09,1.19-19.75c14.42-10.11,31.66-20.85,31.66-20.85l18.53-6.55s-30.09,115-30.1,146c0,26.18,20.19,57.34,26.51,66.46Z" transform="translate(-289.95 -294.59)"/><path class="cls-17" d="M4188,1357.37s37.31,132,16.86,154.38-95.84,46.73-107.25,29.12-31.85-182.49-36.09-203.16,15.31-23.68,15.31-23.68,102-6.09,111.17,43.34Z" transform="translate(-289.95 -294.59)"/><path class="cls-17" d="M4087.35,1314s-39-25-60.29-19-26.12,35.89-26.12,35.89,16.17-34.53,52.55-11.51,37,23.7,37,23.7l-3.16-29.12Z" transform="translate(-289.95 -294.59)"/><polygon class="cls-17" points="3724.57 1094.6 3813.65 1219.2 3810.61 1233.42 3716.17 1111.53 3724.57 1094.6 3724.57 1094.6 3724.57 1094.6"/><path class="cls-14" d="M4003.93,1392.14l-1.31,76.51-50.36,117.79,14.17,11.55s75.62-118.69,77.61-122.88,11.65-77.88,11.65-77.88l-51.76-5.09Z" transform="translate(-289.95 -294.59)"/><path class="cls-10" d="M4007.2,1315.4s-8.26,12.26-11.4,33.43-2.93,52.15-2.93,52.15,28.09,0,48.45,7.88,21.88,7.49,21.88,7.49,10.84-62.31,1.26-88.58-49.51-28.22-57.26-12.37Z" transform="translate(-289.95 -294.59)"/><path class="cls-17" d="M4105.3,1267.56s15.47-5.24,29.56,2,20.91,16.6,20.91,16.6l-20.45,4.63c-.24,0-.62-20.48-30-23.18Z" transform="translate(-289.95 -294.59)"/><path class="cls-12" d="M4163,1284.13c17.08,4.06,53.32,79.23,47.11,88.7s-90.4,41.31-98.23,37.92-16.5-72.45-25.51-81.25-23.72-2.71-23.72-2.71c2.9-3,5.11-7.31,9.94-10.71,24.93-17.51,72.68-36.17,90.41-31.95Z" transform="translate(-289.95 -294.59)"/><path class="cls-18" d="M4134,1384.16s5.21,18.49,7.05,26.5,13.39,6.74,9.66-7.17-5.51-22.7-5.51-22.7l-11.2,3.37Z" transform="translate(-289.95 -294.59)"/><path class="cls-18" d="M4176.38,1372.42s4.77,16.47,6.6,24.48,13.39,6.75,9.66-7.16-5.06-20.69-5.06-20.69l-11.2,3.37Z" transform="translate(-289.95 -294.59)"/><path class="cls-13" d="M3981.17,1203.81c2.63-1.16,64.07-18.76,64.07-18.76l-3,4.32L3982.81,1207l-1.64-3.17Z" transform="translate(-289.95 -294.59)"/><path class="cls-14" d="M3954,1583.82c-.14.16-.32.3-.47.47-7.6,8.62-36.5,34.45-36.57,47.5-1.84,7.38-4.05,18.81-3.23,28.52,1.34,15.82,5.24-10,5.24-10l2-11.2a5.86,5.86,0,0,0,1.05-.11c-1.44,7-2.66,15.62-2,23.24,1.34,15.81,5.24-10,5.24-10l2.68-15.15,1.21-.46c-1.66,7.29-3.31,17.22-2.58,25.8,1.34,15.81,5.24-10,5.24-10l3.19-18,1.25-.46c-.9,6.22-1.91,8.64-.89,19.74s4.51-9.84,4.51-9.84c.8-4.11.68-7.79,1.51-11.36,3.18-13.61,34.84-34.25,24.52-41.12-7-4.63-11.86-7.6-11.86-7.6Z" transform="translate(-289.95 -294.59)"/><path class="cls-19" d="M2621.72,1193.85s4.56,12,.83,24.9-5.81,23.66-5.81,23.66-5.4,1.24-3.74-7.47-8.3-24.07-8.3-24.07l1.66,28.63,9.13,25.74s-10.37,11.2-17.43-4.16-13.28-25.73-7.88-36.93,15.77-39.43,15.77-39.43l15.77,9.13Z" transform="translate(-289.95 -294.59)"/><path class="cls-20" d="M2595.57,1185.55,2584,1235.77l13.28,33.2s13,2.91,6.23-3.73-12.08-30.3-9.13-30.3c18.74,0,38.6-78.36,1.24-49.39Z" transform="translate(-289.95 -294.59)"/><path class="cls-21" d="M2711.56,1694.33s8.51,32.35,2.13,40.87-15.33.85-35.76-8.94S2626,1705,2626,1694.33s38.73,3.11,50.65-8.44,34.91,8.44,34.91,8.44Z" transform="translate(-289.95 -294.59)"/><path class="cls-21" d="M2852.24,1659.76s8.85,33.59,2.22,42.43-15.91.89-37.13-9.28-53.94-22.1-53.94-33.15,40.23,3.22,52.61-8.77,36.24,8.77,36.24,8.77Z" transform="translate(-289.95 -294.59)"/><path class="cls-12" d="M2851.72,1669.61c-10.5,0-34.94-16.86-34.94-16.86-26.69-123.37-43.28-235.63-53.52-323.76,7.25-28.36-33.46-148.6-27.16-174.21,12.76.46,46.55-15,57.51-29.62,25.53-34.14,71.38,4.18,77.86,9,15.75,11.65-17.84,164.94-30.38,278,0,0,8.23,18.07,12.94,106.2,4.54,85,4.54,127.93,2.34,147.65-.3,2.61-2,3.65-4.65,3.65Z" transform="translate(-289.95 -294.59)"/><path class="cls-22" d="M2764.59,1340.24q-.69-5.68-1.33-11.25c4.43-17.33-9.05-69-18.77-112.36l-6.28-55.27,9.94-8.71c15.46-4.69,37.1-16.32,45.46-27.49a40,40,0,0,1,4.29-4.89l40.83,42.67,2.87,26c-8.47,4.65-60.73,116.18-77,151.26Z" transform="translate(-289.95 -294.59)"/><path class="cls-23" d="M2847.75,1115.25l-.39-2.84s-23.17-19.75-17.29-61.41l39.15-42.34c-45.52-89.42-10.26-172.35,2.59-197.25C2884.7,851.14,2941,994,2939,1013.08c-4,39.22-69.55,87.27-91.25,102.17Z" transform="translate(-289.95 -294.59)"/><path class="cls-12" d="M2658,1166.15s-4.61,238.39,13.8,522.75c0,0,29.45,18.47,39.58,12s11.72-91.12,18.29-171.2,6.56-125.18,6.56-125.18,47.35-164.51,59.83-216.43l-138.06-22Z" transform="translate(-289.95 -294.59)"/><path class="cls-20" d="M2737.71,814.4c-5.79-68.71-17.85,5.89-34.06-62.86-6.72-28.45,8.07-43,2.52-65.06a65.06,65.06,0,0,0,14.76,4.6c2.93.6,6,1.12,9.12,1.58.94,13.87,4.81,18.54,10.43,28.37,0,0,11.57-3.08,17-2a4.69,4.69,0,0,1,2.07,1c18.32,15.35,27.6,49.07,33.21,44.81h0l15,35.56c-24.6-3.36-51.51,5.65-70,14Z" transform="translate(-289.95 -294.59)"/><path class="cls-24" d="M2832.5,794.37s-56.78-36.2-105,26.69,119.75,8.44,119.75,8.44l-14.73-35.13Z" transform="translate(-289.95 -294.59)"/><path class="cls-21" d="M2854.51,791.43c-57.62-21.53-142.7,40.76-177,80.6l-28,312.52C2716.4,1212.7,2767,1214,2804,1205.09l4.5-68.89,12.72,63.7c46.77-17.1,66.39-49.86,66.39-49.86l-18.7-97.22s15.93-114.72,22.15-162.35-17.26-91.82-36.59-99Z" transform="translate(-289.95 -294.59)"/><path class="cls-23" d="M2668.05,977.16l-13.66,152.58c14.11-11.81,35.19-36,54-83.46,31.94-80.49,26.19-132.87,26.19-132.87l-11.49-16s-29.75,43-55.08,79.72Z" transform="translate(-289.95 -294.59)"/><path class="cls-23" d="M2737,730.54s13.48-11.47,18.74-7.07-2,21.86-11.09,24.72L2763.4,770s21.31.93,29.34-5.17l6.82-16.29c11.26-16.69,38.45-96.18,8.45-86.37,13.65-38.41-102.51-59.13-114.45-15.49-9.64,35.16,10.75,42.12,36.49,45.94.94,13.87,1.37,28.06,7,37.88Z" transform="translate(-289.95 -294.59)"/><path class="cls-23" d="M2734.2,695.28s2.87,46-8.63,48.4-23.54-3.83-23.54-3.83-18.15,29.7,4.37,43.6,27.8-10.06,27.8-10.06l5.75-58-5.75-20.13Z" transform="translate(-289.95 -294.59)"/><path class="cls-21" d="M2675.81,875.24c-34.06,60.59-32.45,91.78-43.65,140.83l-2.86,11.77-.12.49h0l-36.49,150.12c-3.79,10.41,27.13,19.4,37.68,20,44.5-75.29,73.59-168.84,102.21-252.75,12.52-36.69-8.6-85.34-32.39-86.14-13-.43-21.32,10.23-24.38,15.66Z" transform="translate(-289.95 -294.59)"/><path class="cls-21" d="M2706.41,704.57a18.28,18.28,0,0,0,5.74,4.78c-7.85,2.3-8.42-1-8.42-1l2.68-3.83Zm.76-11.69s8.43,3.64,8.43,6.52-19-5.37-8.43-6.52Z" transform="translate(-289.95 -294.59)"/><path class="cls-4" d="M3363.59,1889.58s6.71,26.94,1.68,34-12.08.71-28.18-7.44-40.93-17.72-40.93-26.59,30.53,2.59,39.92-7,27.51,7,27.51,7Z" transform="translate(-289.95 -294.59)"/><path class="cls-4" d="M3476.88,1852s7,28,1.74,35.33-12.54.74-29.26-7.73-42.5-18.41-42.5-27.6,31.7,2.68,41.45-7.31,28.57,7.31,28.57,7.31Z" transform="translate(-289.95 -294.59)"/><path class="cls-5" d="M3474.05,1862.91c-8.27,0-27.53-13.86-27.53-13.86-21-101.38-34.11-193.62-42.18-266,5.71-23.3-26.37-122.1-21.41-143.15,10.06.38,36.69-12.3,45.33-24.34,20.12-28,56.25,3.43,61.36,7.37,12.42,9.57,2.21,132.25-23.94,228.43,0,0,6.49,14.85,10.2,87.26,3.58,69.81,3.58,105.13,1.84,121.34-.23,2.14-1.61,3-3.67,3Z" transform="translate(-289.95 -294.59)"/><path class="cls-6" d="M3405.39,1592.25c-.36-3.11-.71-6.2-1-9.25,3.49-14.23-7.13-56.67-14.79-92.32l-5-45.42,7.83-7.16c12.19-3.85,29.24-13.41,35.83-22.59a32.72,32.72,0,0,1,3.38-4l32.18,35.07,23.31-14.78c-6.67,3.82-68.91,131.65-81.74,160.47Z" transform="translate(-289.95 -294.59)"/><path class="cls-5" d="M3348.17,1418.46s-34.89,90.34-25.54,227.7c4.86,71.34,4.57,156.28,9.63,238.9,0,0,23.22,15.38,31.19,10s9.24-75.87,14.42-142.55,5.17-104.23,5.17-104.23,23.4-85.91,38-143.13c36.37-15,38.65-56.39,40.7-65.38l-113.6-21.32Z" transform="translate(-289.95 -294.59)"/><path class="cls-14" d="M3319.89,1506.05c-15.73,4.65-13.74,40-8.67,56.49,3.87,12.63,2.69-7.07,2.69-7.07l-.26-8.51a7.67,7.67,0,0,0,.87.07,62.74,62.74,0,0,0,2.32,18c3.87,12.63,2.69-7.07,2.69-7.07l-.36-11.52.95-.19a64.53,64.53,0,0,0,2.28,19.91c3.87,12.62,2.71-7.09,2.71-7.09l-.43-13.71,1-.18c.31,4.76-.13,6.52,2.65,15.4s2.11-7.08,2.11-7.08c0-3.12-1-6.11-.67-8.72,1.29-11.42,10.27-18.58,5.71-30.84-3.5-25.91-15.57-7.85-15.57-7.85Z" transform="translate(-289.95 -294.59)"/><path class="cls-14" d="M3330.75,1032.9s-14.43,21.79-13.06,38.13,10,19.61,9.63,33.77,7.55,46.13,28.52,53,42.28-14.16,42.28-17.43,5.16-71.9,5.16-71.9l-72.53-35.59Z" transform="translate(-289.95 -294.59)"/><path class="cls-14" d="M3353.22,1156.79a23.74,23.74,0,0,0,2.62,1c8.21,2.71,16.48,1.12,23.5-2-1.44-6.66-2.93-13.06-2.93-13.06s-7.33,14.59-23.19,14Z" transform="translate(-289.95 -294.59)"/><path class="cls-14" d="M3371.77,1147.22s5.77,28.62,2.66,34.64-32,31.13-33.8,52.72,21.36,20.08,56.95,2,66.54-52.28,66.54-52.28,7.74-24.54-10.93-24-38.71,6.69-42.71-3.19-3.57-25.85-3.57-25.85-22.25-17.39-35.14,16Z" transform="translate(-289.95 -294.59)"/><path class="cls-25" d="M3477.1,1298.38c-.86,29.49,5.55,96.76,15.71,114.91s-18.74,36.29-53.86,38.76-81.19-2.47-89.78-19-14.23-188-15.35-194.48,6.89-24.48,10.22-25.8c28.18,8.26,114.39-11.88,119.94-33.6,7.39,2.94,14,89.7,13.12,119.18Z" transform="translate(-289.95 -294.59)"/><path class="cls-26" d="M3494.48,1424c-3.33,14-23.92,25.79-55.53,28-12.19.86-28.74,2.42-43.27.64-26.16-3.22-44.81-12.71-48.41-19.61-5.83-11.21-10.08-58.22-11.1-85.43,10.73-36.15,23.84-79.78,23.84-79.78l25,6.6c7.43-2.14,17.83,14.64,17.52,37.55-.49,38.22-16.3,93.49-19.27,106.49-6,26.31,92.75,21.64,111.24,5.52Z" transform="translate(-289.95 -294.59)"/><path class="cls-25" d="M3389.09,1261.07s8.65,83.61-3.71,109.89c-6.21,13.24-30.4,123.82-49.33,144.14,0,0-19.48-3-20-14.2-.64-12.84,11.92-119.74,16.75-125.76-21.33-171.68-3.35-153.34,13.23-166.88s40.43,48.83,40.43,48.83l2.67,4Z" transform="translate(-289.95 -294.59)"/><path class="cls-25" d="M3463,1159.54c9.2,4.66,7.63,25.08,7.63,25.08s-30.51,36.27-72,45.68-64.46,3.56-64.46,3.56c-5.65-28.76,83.4-97.37,128.88-74.32Z" transform="translate(-289.95 -294.59)"/><path class="cls-15" d="M3363.41,1003.12c63.9-15.07,72.6,81.44,88.76,118.73,16.75,38.68,65.51,58.4,43.55,95.9-67.36,81.58-111.29-34.64-126.43-88.19-13.39-36-95.62-105.26-5.88-126.44Z" transform="translate(-289.95 -294.59)"/><path class="cls-15" d="M3314.32,1082.58l28.72-6.74,3.74-64.63s-42,10.12-32.46,71.37Z" transform="translate(-289.95 -294.59)"/><path class="cls-7" d="M2136.06,1441.4a2874.11,2874.11,0,0,1-47.25-291.47c7.27-25.44-30.19-133.31-23.86-156.28,12.19.41,44.66-13.43,55.31-26.58,24.8-30.63-4.27-1.3,1.86,3,14.91,10.45,34.21,122.71,20.88,224.13,0,0,26.83,46.52,30.28,125.58,3.32,76.22-4.11,118.82-6.46,136.51-.05.4-29.71.57-30.76-14.88Z" transform="translate(-289.95 -294.59)"/><path class="cls-7" d="M1996.06,1002.45s-1.76,234.65,12.08,506.36c0,0,22.12,10.8,31.87,4.64-.56-38.48,16.4-92,23.73-168.49s3.93-114.71,3.93-114.71,47.41-157.2,60-206.81l-131.64-21Z" transform="translate(-289.95 -294.59)"/><path class="cls-9" d="M2155.42,1034.5l-3.15,148.37s-42.69,30.51-62.81,18.37,9.31-128.18,9.31-128.18l56.65-38.56Z" transform="translate(-289.95 -294.59)"/><path class="cls-7" d="M1959.52,628.07s-5.56,33.06-.41,39.39c13.73,16.89-14.08,19.39,11.54,51.26,14.87,18.51,16.52,32.09,38.32,19.72S2058.32,672,2058.32,672l-25.74-29.45S2021.42,626.23,2018,626s-40.38-20.31-58.47,2.06Z" transform="translate(-289.95 -294.59)"/><path class="cls-7" d="M1998.44,707.55l13.67,60.1-29.86,16.77s35.2,22.37,63.34,12,55.74-35.11,54.17-38.6-9.71-21-11.62-20.95-16.24-1.8-16.22-5-19.9-61.66-19.9-61.66l-55.76,37.34Z" transform="translate(-289.95 -294.59)"/><path class="cls-23" d="M2061.23,697.71c.14-3.15,28.09-36.87,16.41-72.31-33-100.28-170.84,3.43-111,11.08,17,2.18,28.38,6.39,35,19.53s3.89,22,3.89,22a11.83,11.83,0,0,0,6.21-2c2.77-2,6.34-17.8,15.34-15.29s2.52,41.82,2.52,41.82l31.58-4.81Z" transform="translate(-289.95 -294.59)"/><path class="cls-23" d="M1979.89,1212.8s30.91,28.1,72.33,23.09,44.11-10.69,44.11-10.69l13.71-95.43,26.78-101.19-153.88,1.08-3,183.14Z" transform="translate(-289.95 -294.59)"/><path class="cls-18" d="M1985.19,776S2064,737.3,2088,735.84s45.38,11.27,49.56,25.38,9.11,201,9.11,201l15.28,74.5s-30.68,27.22-101,26.85-83.1-14.42-83.1-14.42l-2.13-162.91s3.38-99.49,9.47-110.25Z" transform="translate(-289.95 -294.59)"/><path class="cls-14" d="M2031.67,1062.49c-44.78-3.37-53.82-13.32-53.82-13.32l-2.13-162.91s.3-8.64.86-21.1c15.57-10.9,34.21-22.51,34.21-22.51l20.15-7.14s-30.43,123-29.76,156.2c.57,28,23.37,61.1,30.49,70.78Z" transform="translate(-289.95 -294.59)"/><path class="cls-27" d="M2172.25,831.14S2216,971.89,2194.1,995.91s-103.91,50.64-116.79,31.92-38.88-194.68-44-216.72,16.24-25.41,16.24-25.41,111.51-7.29,122.67,45.44Z" transform="translate(-289.95 -294.59)"/><path class="cls-27" d="M2061.16,785.62s-43.21-26.46-66.43-19.79-27.81,38.53-27.81,38.53,16.95-37,57.28-12.69,41,25,41,25l-4.09-31.07Z" transform="translate(-289.95 -294.59)"/><polygon class="cls-27" points="1693.12 571.87 1793.38 704.26 1790.36 719.47 1684.29 590.01 1693.12 571.87 1693.12 571.87 1693.12 571.87"/><path class="cls-7" d="M1962.67,872.24l31.65,81.19-6.1,121.09,21.06,13.41s34.35-120,34.79-124.31-20.5-81.8-20.5-81.8l-60.9-9.58Z" transform="translate(-289.95 -294.59)"/><path class="cls-18" d="M1972.47,791c-20.86,25.69-12.61,78.23-12.63,109.39,25.18,12,58.25,10.84,75.19-12.89,0,0,7.49-50.07-.87-78.75s-51.92-34-61.69-17.75Z" transform="translate(-289.95 -294.59)"/><path class="cls-27" d="M2079.79,735.85s16.82-5.72,32.41,1.85,23.25,17.57,23.25,17.57l-22.28,5.1c-.27.06-1.14-21.87-33.38-24.52Z" transform="translate(-289.95 -294.59)"/><path class="cls-27" d="M2065.51,779.36c-2.72-3.27-11.86-27.36,0-32.11s23.66-4.83,32.67,1.7,9.77,13.38,9.77,13.38l-8.53,2.8s-2.63-14.8-20.19-16-7.06,24.2-7.06,24.2l-6.64,6.08Z" transform="translate(-289.95 -294.59)"/><path class="cls-21" d="M2141.87,753.11c18.79,4.21,60.11,84.22,53.53,94.39s-98.07,44.81-106.72,41.25S2069,811.49,2059,802.16s-26-2.72-26-2.72c3.1-3.27,5.44-7.85,10.65-11.51,26.91-18.9,78.77-39.19,98.28-34.82Z" transform="translate(-289.95 -294.59)"/><path class="cls-14" d="M2115.6,866.08,2130,922.26c2.18,8.54,14.81,7.1,10.42-7.73s-12.64-52.14-12.64-52.14l-12.2,3.69Z" transform="translate(-289.95 -294.59)"/><path class="cls-14" d="M2159.91,847.31s12.22,47.64,14.42,56.18,14.81,7.1,10.42-7.73-12.65-52.14-12.65-52.14l-12.19,3.69Z" transform="translate(-289.95 -294.59)"/><path class="cls-14" d="M2116.38,791.91s-7.58,16.86-5.37,19.38,16.91,8.21,19.44,7.75,7.41-13.89,6.82-15.37-15.63-17.6-20.89-11.76Z" transform="translate(-289.95 -294.59)"/><path class="cls-21" d="M1949.81,1507.83s4.27-11.81,18.47-10.54,58.67,13.6,58.67,13.6l12.87.08c2.16-1.58,13.33,18.91,5.56,29.6-5.76,9.22-36.62,12-48.61,3.85s-57.89-14.84-47-36.59Z" transform="translate(-289.95 -294.59)"/><path class="cls-28" d="M2041.66,1492.1s-1.25,14.57-.86,22.32c.37,7.34-25.71,19.92-34.83,3.19l1.88-25c9.77,5.32,17.17,11.51,33.81-.55Z" transform="translate(-289.95 -294.59)"/><path class="cls-29" d="M1992.18,1519.73a1,1,0,0,1-.94.71.63.63,0,0,1-.53-.84s1.46-5.76,4.52-9.1a30,30,0,0,1,8-5.69.66.66,0,0,1,1,.35.94.94,0,0,1-.53,1,27.74,27.74,0,0,0-7.42,5.23c-2.72,3-4.07,8.27-4.08,8.29Zm-18-3.88a1,1,0,0,1-.94.71.64.64,0,0,1-.54-.84s1.47-5.76,4.52-9.1a30.38,30.38,0,0,1,8-5.69.65.65,0,0,1,1,.35.91.91,0,0,1-.52,1,28.15,28.15,0,0,0-7.42,5.24c-2.72,3-4.07,8.27-4.08,8.29Zm4.28,1a.94.94,0,0,1-.94.7.63.63,0,0,1-.54-.84s1.47-5.75,4.52-9.1a30.49,30.49,0,0,1,8-5.68.65.65,0,0,1,1,.35.91.91,0,0,1-.52,1,28.42,28.42,0,0,0-7.43,5.23c-2.71,3-4.06,8.28-4.07,8.3Zm4.79.65a1,1,0,0,1-1,.71.63.63,0,0,1-.53-.84s1.46-5.76,4.52-9.1a29.64,29.64,0,0,1,8-5.68.65.65,0,0,1,1,.34.93.93,0,0,1-.53,1,27.74,27.74,0,0,0-7.42,5.23c-2.72,3-4.07,8.28-4.07,8.29Zm4.53,1a.94.94,0,0,1-.94.7.63.63,0,0,1-.54-.84s1.47-5.75,4.52-9.1a30.49,30.49,0,0,1,8-5.68.65.65,0,0,1,1,.35.91.91,0,0,1-.52,1,28.27,28.27,0,0,0-7.42,5.23c-2.72,3-4.07,8.28-4.08,8.3Z" transform="translate(-289.95 -294.59)"/><path class="cls-21" d="M2077.77,1464.78a17.39,17.39,0,0,1,18.47-10.8c14.2,1.37,58.67,14.25,58.67,14.25l12.87.14c2.16-1.62,11.5,21.55,3.73,32.55-5.76,9.49-33.6,11.44-45.59,2.95s-59.08-16.7-48.15-39.09Z" transform="translate(-289.95 -294.59)"/><path class="cls-28" d="M2169.61,1448.91s-1.24,15-.85,23c.36,7.57-25.71,20.45-34.84,3.16l1.89-25.74c9.77,5.52,17.17,11.94,33.8-.44Z" transform="translate(-289.95 -294.59)"/><path class="cls-29" d="M2120.14,1477.22a.94.94,0,0,1-.94.73.66.66,0,0,1-.54-.87s1.47-5.93,4.52-9.37a29.88,29.88,0,0,1,8-5.83.64.64,0,0,1,.95.36.94.94,0,0,1-.52,1.07,28.14,28.14,0,0,0-7.43,5.37c-2.71,3.06-4.06,8.52-4.07,8.54Zm-18-4.07a.94.94,0,0,1-.94.72.66.66,0,0,1-.54-.87s1.47-5.93,4.52-9.37a30.39,30.39,0,0,1,8-5.83.65.65,0,0,1,1,.36,1,1,0,0,1-.52,1.08,27.72,27.72,0,0,0-7.43,5.37c-2.71,3.06-4.07,8.52-4.07,8.54Zm4.28,1.06a1,1,0,0,1-.94.73.66.66,0,0,1-.54-.87s1.46-5.93,4.52-9.37a30,30,0,0,1,8-5.83.64.64,0,0,1,.95.36,1,1,0,0,1-.52,1.08,27.57,27.57,0,0,0-7.43,5.36c-2.72,3.06-4.07,8.53-4.07,8.54Zm4.78.7a.93.93,0,0,1-.94.72.65.65,0,0,1-.53-.87s1.46-5.93,4.51-9.37a30.2,30.2,0,0,1,8-5.83.66.66,0,0,1,.95.36,1,1,0,0,1-.53,1.08,28,28,0,0,0-7.42,5.37c-2.72,3.06-4.07,8.52-4.08,8.54Zm4.54,1a1,1,0,0,1-.94.73.66.66,0,0,1-.54-.87s1.47-5.93,4.52-9.37a29.88,29.88,0,0,1,8-5.83.64.64,0,0,1,.95.36,1,1,0,0,1-.52,1.07,28,28,0,0,0-7.43,5.37c-2.72,3.06-4.07,8.52-4.07,8.54Z" transform="translate(-289.95 -294.59)"/><path class="cls-27" d="M1591,1188.83c9.88,10.15,42.82-27,35.7-44.85s-46.44,14.18-46.44,14.18l10.74,30.67Z" transform="translate(-289.95 -294.59)"/><path class="cls-14" d="M1623.85,1257.66l3.48-48.35L1591,1158.06s7-27.44,28.08-26l25.74,63.09,15.3,13.36-19.41,37.24-16.85,12Z" transform="translate(-289.95 -294.59)"/><path class="cls-14" d="M1397.75,1024.56s1.29,65.1,5.16,112.79,14.55,113.39,11.14,126.94-16.3,21.29-16.3,21.29-21.91.65-23.2,5.8,20.62,16.76,35.45,16.11,21.91-3.81,23.84,0,3.22,18.67,3.22,18.67,3,3.65,5.38,2.14,0-10.09,2.58-18.9,6.66-11.17,6.87-19.76-9.12-13-8.68-26.26c.94-28.74,1-82.23,8.68-124.13s5.81-103.12,0-117.94l-54.14,3.22Z" transform="translate(-289.95 -294.59)"/><path class="cls-8" d="M1433.84,1307.52c1.94,3.84,3.22,18.67,3.22,18.67s3,3.65,5.38,2.14,0-10.09,2.58-18.9,6.66-11.17,6.87-19.76c.16-6.4-5-10.48-7.42-17.63-7.94,3.94-14.84,11.78-22.23,13.87-10.31,2.89-14.82,0-14.82,0-1.18-1.53-1.49-4.36-1.42-7.32a41.38,41.38,0,0,1-8.25,7s-21.91.65-23.2,5.8,20.62,16.76,35.45,16.11,21.91-3.81,23.84,0Z" transform="translate(-289.95 -294.59)"/><path class="cls-8" d="M1647.35,1196.25s-10.27,3.37-12.85,11.75c-7.36,23.38-1,33.25-11,46.08,0,0-15.34,17.59-12.57,23.53s26.72-3.55,34.47-11.6,11.62-30.94,11.62-30.94,6.12,14.82,8.69,20,6.77,1,4.19-4.51-3.54-13.54-3.87-23.52-3.26-27.34-18.72-30.77Z" transform="translate(-289.95 -294.59)"/><path class="cls-27" d="M1591,1188.83s-2.5-32,35.7-44.85c0,0-34.76-93.64-75.19-138.33l-3.13-56.73-2.62-47.48-3-54.76-.09-1.54L1542,833.5l-3.66-77.4c-9.39,7.24-44.17,12.25-71,19-2.22,52.29,7.42,180.55,1.62,212.72,6.54,23.2,13.22,43.74,19.58,58.07,27.87,62.74,102.48,143,102.48,143Z" transform="translate(-289.95 -294.59)"/><path class="cls-21" d="M1374.5,809.36s7.3,183.27,10.39,259.37,11.47,145.07,11.47,145.07,31.73,22.85,55.53,6.45c0,0,23.74-145,12.14-206.88,0,0,33.69-147,25.48-229.59l-115,25.58Z" transform="translate(-289.95 -294.59)"/><path class="cls-14" d="M1372.76,397.73s-14,22.06-11.79,38,11.23,18.75,11.52,32.65,10,44.87,32,50.62,43.15-15.94,43-19.14,2-70.76,2-70.76l-76.77-31.39Z" transform="translate(-289.95 -294.59)"/><path class="cls-14" d="M1401.7,518.14c.9.33,1.83.63,2.78.88,8.63,2.25,17.11.3,24.24-3.11-1.8-6.46-3.63-12.65-3.63-12.65s-6.92,14.65-23.39,14.88Z" transform="translate(-289.95 -294.59)"/><path class="cls-10" d="M1363.82,397.43c2.75-2.27,8.28-21.44,41.41-30.49s76.11,32.5,77.2,63.5-33.1,70.78-33.1,70.78-19.25.54-21.9-25.74-16.49-32.07-21.06-22.93-4.15,10.54-4.15,10.54-52.48-23.25-38.4-65.66Z" transform="translate(-289.95 -294.59)"/><path class="cls-14" d="M1420.49,507.85s7.3,27.79,4.35,33.85-31.76,32.07-32.62,53.33,23,18.66,59.1-.79,66.55-54.48,66.55-54.48,6.91-24.44-12.43-23-39.8,8.43-44.4-1.06-4.87-25.18-4.87-25.18-23.84-16-35.68,17.37Z" transform="translate(-289.95 -294.59)"/><path class="cls-18" d="M1481.78,412.36a12.94,12.94,0,0,0-13.45-6c-9.49,1.43-18.31,12.5-8.12,21.47s21.83-5.3,21.83-5.3l-.26-10.21Z" transform="translate(-289.95 -294.59)"/><path class="cls-30" d="M1536.55,651c.44,29,10.18,94.62,21.53,111.93s-17.75,36.49-54,40.62-84.22,1.5-93.88-14.26-24.62-188.44-23.57-190.45,6.31-9.36,8.41-13.38c29.59,6.74,117.74-29.14,122.5-50.7,7.77,2.53,18.6,87.28,19,116.24Z" transform="translate(-289.95 -294.59)"/><path class="cls-31" d="M1560.3,773.37c-2.79,13.92-23.6,26.45-56.26,30.17-12.57,1.43-29.66,3.76-44.79,2.71-27.24-1.88-47-10.29-51.06-16.88-6.56-10.72-13.11-56.61-15.4-83.24,9.45-36,21-79.4,21-79.4L1440,632s-5.87,132.65,14.18,145.49c22.39,14.34,87.7,12.58,106.11-4.12Z" transform="translate(-289.95 -294.59)"/><path class="cls-10" d="M1473.91,410.73c4.61-.23,10.52.52,17.95,3.25,23.51,8.6,42.69,53.44,50.09,93.28s14.78,45.93,14.78,45.93c-2.64-.85-14.58-12-27.2-27,3.26,6.88,4.94,16.17,15.37,24.36-17.29-10.85-28.5-18.95-36.89-39.72,0,0,9.72,25.23,20.68,30.58-27.56-6.57-47.28-44.72-46.43-66s-6.3-45.9-14.24-47.83c-10-2.44-13-15.87,5.89-16.84Z" transform="translate(-289.95 -294.59)"/><path class="cls-16" d="M1471.2,518.88s28.4,9,28.44,58.65-60.3,201-60.3,201l7.57,3.07s49.93-141.7,56.47-172.84,7.46-84.88-32.18-89.89Z" transform="translate(-289.95 -294.59)"/><path class="cls-16" d="M1391.85,752.2l58.9,13.81-17.34,81.35s-6.06,16.84-17,16.21-90.62-20.33-90.62-20.33-13.86-3.35,4.29-30.47,43.08-68.27,43.08-68.27l18.64,7.7Z" transform="translate(-289.95 -294.59)"/><path class="cls-14" d="M1295.69,817.83c-15.16-5.92-29.71,6.2-36.17,13.47-4.61,3-11.39,8-15.6,13.82-6.87,9.45,7.8-2.49,7.8-2.49l6.52-5a5.34,5.34,0,0,0,.66.55c-4.18,3-9.06,7.05-12.36,11.6-6.87,9.45,7.79-2.48,7.79-2.48l8.83-6.79.92.43c-4.47,3.06-10.19,7.57-13.92,12.7-6.86,9.45,7.8-2.49,7.8-2.49l10.51-8.08.93.46c-3.5,2.9-5.25,3.65-10,10.33s7.31-2.83,7.31-2.83c2.44-1.8,4-4.06,6.34-5.37,10.1-5.78,23.06-4.7,29-14.34,17.7-16.82-6.39-13.47-6.39-13.47Z" transform="translate(-289.95 -294.59)"/><path class="cls-30" d="M1437.29,625.64s-9.79,85.56-28,113.16-46.17,87.27-67,91.48-31.08-5.84-31.08-5.84l-10.1,9.39s-15.08-10.65-13.19-22.08S1298.39,797,1298.39,797s27.71-52.7,57.86-84.1,14.31-110.09,33.89-124.79,45.34,33.55,45.34,33.55l1.81,4Z" transform="translate(-289.95 -294.59)"/><path class="cls-31" d="M1357.12,820.16c-5.18,5.48-10.19,9.19-14.84,10.12-20.88,4.22-31.08-5.84-31.08-5.84l-10.1,9.39s-15.08-10.65-13.19-22.08S1298.39,797,1298.39,797s1.12-2.12,3.14-5.77c0,7.47,2.23,22.44,17.76,30.66,13.15,7,28.23,2.6,37.83-1.74Z" transform="translate(-289.95 -294.59)"/><path class="cls-25" d="M4670.87,2401.9s12.05,34.26,3,42.46-21.7-.56-50.63-12.62-88.26-28.68-88.26-39.69,49.24-20.54,87.33-2.18c16.88-10.83,48.54,12,48.54,12Z" transform="translate(-289.95 -294.59)"/><path class="cls-25" d="M4813.13,2313.68s12,34.74,3,43.89-21.59.91-50.37-9.61-73.15-22.86-73.15-34.28,26.56-25.85,74.3-8.49c16.79-12.42,46.22,8.49,46.22,8.49Z" transform="translate(-289.95 -294.59)"/><path class="cls-21" d="M4814.21,2324.85c-10.59,0-47.61-17.64-47.61-17.64-27-116.12-31.35-302.93-41.7-385.88,7.32-26.7-32-203.37-25.66-227.48,12.89.43,47-14.09,58.07-27.89,25.77-32.13,72.07,3.94,78.61,8.45,15.91,11-19.77,218.75-32.43,325.16,0,0,8.31,99.9,13.07,182.86,4.58,80,4.58,120.42,2.35,139-.3,2.46-2.06,3.44-4.7,3.44Z" transform="translate(-289.95 -294.59)"/><path class="cls-27" d="M4726.24,1931.92c-.46-3.57-.9-7.1-1.34-10.59,4.48-16.32-7.37-128.42-17.18-169.26l-6.35-52,10-8.2c15.62-4.41,37.46-15.36,45.9-25.88a40,40,0,0,1,4.33-4.6l50.7,5.83,11.19,21c-8.55,4.38-80.85,210.76-97.29,243.78Z" transform="translate(-289.95 -294.59)"/><path class="cls-21" d="M4650,1661.11s-52.79,437.39-34.2,731.48c0,0,46.51,23.22,56.73,16.55s11.84-94.24,18.47-177.06,6.62-212.36,6.62-212.36,68.52-282.2,81.13-335.9L4650,1661.11Z" transform="translate(-289.95 -294.59)"/><path class="cls-14" d="M4556.31,1750.91c-24.26,10.69-32,75.12-28.3,97.81,2.78,17.33,5.62-16.84,5.62-16.84l2.06-18.66a8.59,8.59,0,0,0,1.28-.12c-1.24,7.61-2.58,29.41-1.24,37.76,2.78,17.33,5.61-16.84,5.61-16.84l2.63-19.8,1.43-.5c-1.48,8-3.23,28-1.73,37.36,2.79,17.33,5.62-16.84,5.62-16.84l2.54-19.76,1.48-.5a128.57,128.57,0,0,0,1.12,31.22c2.06,12.16,4-20.38,4-20.38.67-4.5,0-8.6,1-12.45,4.54-16.87,19.44-29.51,15.54-46.11.84-36.69-18.66-15.35-18.66-15.35Z" transform="translate(-289.95 -294.59)"/><path class="cls-14" d="M4650.64,1145.58a15,15,0,0,1-.19,7.76c-2,6.11-7.1,14.21-9.7,22.74-1.75,5.77-6.41,12.49-5.25,15,4,8.5,33.84,7.75,33.84,7.75l-18.7-53.24Z" transform="translate(-289.95 -294.59)"/><polygon class="cls-32" points="4361.04 857.61 4354.19 865.06 4362.43 869.79 4361.04 857.61 4361.04 857.61 4361.04 857.61"/><path class="cls-14" d="M4642.19,1094.21s.68,38.88,4.86,48.77c2,4.63,2.55,8.89,4,16.14,1.69,8.56-6.28,18.9-3.34,27.79,15.63,47.4,7.78,57.25,53.47,74.36a14.89,14.89,0,0,0,5.08,1.28c5.46-.49,66.42-17.45,67.13-28s25.95-89.33,11.13-99.37-91.64-43.69-91.64-43.69l-50.68,2.68Z" transform="translate(-289.95 -294.59)"/><path class="cls-14" d="M4768.29,1218.56l15.48,77.55-83.91,28.7s2.11-52.75,9.15-72.43,59.28-33.82,59.28-33.82Z" transform="translate(-289.95 -294.59)"/><path class="cls-8" d="M4704.37,1172s14.54-30.82,25.95-12.62-2.31,85.14-2.31,85.14,35.94-11.08,44.95-6.57c.31-21.48,23.53-57.9,32.69-95.41,5.49-22.52-.57-51.5-4.81-54.29-11.28-7.42-8.85-29.51-87-22.55s-88.43,2.73-87.45,26.1,16.74,41.92,43.31,39.93,25.85,17.42,24.89,31.42c-.3,4.5-1,12.21-2.24,20.6l8.83,2.21c.8-4.43,1.85-9.07,3.19-14Z" transform="translate(-289.95 -294.59)"/><path class="cls-33" d="M4639.14,1394.09c2.29-4.59,10.71-45.9,42.08-66.56s101-42.08,101-42.08,61.69-5.57,68.57,51.82-21.13,206-13.48,244.27,13,62.74,13,62.74,7.66,54.32-77.27,65.8-123.89-27.89-123.89-27.89l-10-288.1Z" transform="translate(-289.95 -294.59)"/><path class="cls-34" d="M4677.94,1700a142.55,142.55,0,0,1-36.77-21.37l5.31-182.5c.5-54.62-1.16-110.19,14.08-129.53s60.45-6.89,62.74,51.26c0,0-3,133.52-7.65,166.79s-16.11,75.86-30.48,117.53l-7.23-2.18Z" transform="translate(-289.95 -294.59)"/><path class="cls-33" d="M4715.7,1418s-31.87,132.53-46.09,176.59-91.63,179-91.63,179l-36.62-12.38,60.82-176.37s29.94-203.27,54.26-225.86,67.94-1.56,59.26,59.06Z" transform="translate(-289.95 -294.59)"/><path class="cls-32" d="M4664.05,1141c-1.48-1.45-4.72-2.47-8.48-2.47-5.17,0-9.35,1.91-9.35,4.25,0,1,.8,2,2.13,2.7,1.15-2.78,5.9-4.86,11.59-4.86a21.57,21.57,0,0,1,4.11.38Z" transform="translate(-289.95 -294.59)"/></svg>